<?xml version="1.0" encoding="UTF-8" standalone="no"?>
<svg
   xmlns:dc="http://purl.org/dc/elements/1.1/"
   xmlns:cc="http://creativecommons.org/ns#"
   xmlns:rdf="http://www.w3.org/1999/02/22-rdf-syntax-ns#"
   xmlns:svg="http://www.w3.org/2000/svg"
   xmlns="http://www.w3.org/2000/svg"
   xmlns:sodipodi="http://sodipodi.sourceforge.net/DTD/sodipodi-0.dtd"
   xmlns:inkscape="http://www.inkscape.org/namespaces/inkscape"
   version="1.1"
   id="svg2"
   xml:space="preserve"
   width="486.66666"
   height="307.12"
   viewBox="0 0 486.66666 307.12"
   sodipodi:docname="flag-map-of-switzerland-seeklogo.com.eps"><metadata
     id="metadata8"><rdf:RDF><cc:Work
         rdf:about=""><dc:format>image/svg+xml</dc:format><dc:type
           rdf:resource="http://purl.org/dc/dcmitype/StillImage" /></cc:Work></rdf:RDF></metadata><defs
     id="defs6" /><sodipodi:namedview
     pagecolor="#ffffff"
     bordercolor="#666666"
     borderopacity="1"
     objecttolerance="10"
     gridtolerance="10"
     guidetolerance="10"
     inkscape:pageopacity="0"
     inkscape:pageshadow="2"
     inkscape:window-width="640"
     inkscape:window-height="480"
     id="namedview4" /><g
     id="g10"
     inkscape:groupmode="layer"
     inkscape:label="ink_ext_XXXXXX"
     transform="matrix(1.3333333,0,0,-1.3333333,0,307.12)"><g
       id="g12"
       transform="scale(0.1)"><path
         d="m 2446.24,154.148 -9.49,3.793 -4.73,1.938 7.86,25.293 5.5,-1.902 3.59,-3.122 2.31,-8.289 z M 2181.55,2168.31 c -7.79,-1.75 -12.4,-3.01 -19.12,-1.51 l -4.85,26.67 31.35,4.61 6.77,-27.51 c -4.94,-0.51 -9.76,-1.27 -14.15,-2.26 z m 1424.84,-1174.638 -35.15,-11.711 -20.28,57.169 33.19,25.83 -20.76,31.87 34.84,22.95 -2.74,21 -11.33,21.92 13.65,6.81 20.92,57.74 -6.43,40.71 c 1.52,1.77 2.3,2.77 3.21,4.01 4.16,4.61 5.99,8.29 5.53,14.29 -0.46,5.99 0,8.77 2.76,12.91 2.77,4.15 3.69,5.53 4.62,17.06 0.54,6.65 1.44,11 4.18,15.54 l -28.16,18.12 -32.83,10.68 3.93,18.93 -33.44,24.49 -9.13,-8.92 -14.93,-0.43 -12.59,-14.68 -10.29,-34.69 -15.88,-5.37 12.18,-26.9 -19.14,-1.69 -44.95,10.9 -5.99,-35.5 2.31,-43.34 -28.59,-3.69 -23.9,-16.74 -44.34,-7.69 -7.03,8.99 -7.73,9.9 -30.42,0.47 -25.53,41.54 -24.26,7.34 -10.15,7.13 h -43.34 l -38.74,25.15 -2.01,37.51 16.61,35.04 -15.51,11.36 4.61,16.61 -12.62,1.54 -13.84,-13.37 -16.15,-0.46 -41.04,28.59 -23.34,0.3 -60.58,22.31 -37.17,-9.38 -20.29,11.98 -35.04,-16.6 -14.75,22.13 -46.63,-20.68 c 0.29,4.16 2.53,8.58 7.49,14.69 2.29,2.82 5.17,6 8.72,9.69 18.79,19.51 18.02,28.44 11.06,53.48 -4.61,16.6 -10.56,31.83 -17.06,48.42 -8.29,21.21 -6.92,31.82 -0.92,50.25 5.99,18.45 22.59,60.41 30.43,75.62 5.24,10.15 10.06,20.5 16.39,29.97 3.16,4.73 6.68,9.23 10.82,13.37 12.45,12.45 17.06,23.98 19.83,37.81 2.76,13.83 8.76,22.59 20.28,35.03 l 23.49,2.82 12.94,22.18 -16.66,15.9 c 0.97,7.54 0.95,15.66 0.06,24.58 -1.39,13.84 -1.39,17.52 2.76,22.59 2,2.45 3.26,6.18 4.06,10.7 l -60.63,20.23 -10.78,25.79 c -1.81,1.11 -3.5,2.49 -5.05,4.16 -0.84,0.91 -1.59,1.66 -2.32,2.32 l -0.64,0.54 c -0.53,0.42 -1.03,0.77 -1.53,1.05 l -0.75,0.35 c -0.5,0.21 -1.03,0.31 -1.56,0.36 -0.25,0.04 -0.48,0.08 -0.74,0.07 -0.81,-0.02 -1.66,-0.17 -2.64,-0.51 -2.6,-0.93 -6,-3.03 -11.03,-6.48 -9.85,-6.8 -17.06,-9.69 -28.59,-15.68 -10.32,-5.38 -17.98,-1.85 -24.44,7.37 -6.46,9.23 -14.29,14.76 -22.59,16.61 -8.29,1.84 -8.29,4.61 -6.92,8.29 1.38,3.69 0.46,5.99 -6.92,11.53 -7.37,5.54 -20.74,15.68 -29.96,21.68 -9.23,5.98 -11.07,11.98 -8.77,20.74 2.31,8.76 1.85,11.98 -11.06,20.74 -12.91,8.77 -53.03,35.97 -68.25,43.8 -15.21,7.84 -57.79,29.3 -71.46,34.59 -1.46,0.56 -2.72,1.35 -3.88,2.21 l -0.08,-0.01 -18.02,8.51 -8.91,9.58 c -8.77,-0.76 -13.16,-1.7 -19.37,0 l -24.01,10.7 -52.87,9.86 -24.2,-5.99 -58.81,-33.13 -24.55,-3.58 -24.92,5.24 c 0.75,1.18 4.34,1.62 10.64,0.31 1.68,-0.35 3.35,-0.66 5.03,-0.91 l 0.5,2.75 -16.99,27.84 -8.84,2.48 1.48,14.51 15.99,1.18 -3.84,12.27 -17.47,-0.13 -26.37,15.4 -7.46,22.92 -27.18,-21.67 -0.3,-16.65 25.17,-5.92 -8.16,-29.8 c -7.49,1.6 -13.38,5.47 -23.32,10.77 -6.71,3.57 -17.4,5.17 -28.73,5.23 l 8.9,30.73 -17.52,5.54 -3.54,10.7 9.23,17.52 14.54,4.56 -22.06,18.85 -14.76,-4.61 -27.66,44.26 -12.3,-5.43 5.99,-27.2 -12.14,-11.63 -12.9,3.69 -2.75,43.31 -44.26,1.85 7.38,-35.04 -11.14,10.77 -53.84,-15.88 c -1.03,-1.68 -2.26,-3.48 -3.73,-5.5 -11.39,-15.61 -18.5,-23.31 -25.54,-29.42 l -1.82,-11.8 -4.45,-17.34 -17.07,-8.22 c -2.88,-4.04 -6.73,-9.06 -10.48,-14.01 l 12.49,-16.86 -12.45,-11.99 6.16,-9.45 42.45,-12.28 0.13,-17.77 54.2,10.74 -8.11,14.36 34.01,11.14 16.72,5.47 16.65,-13.24 c 0.13,-4.38 2.46,-7.58 6.85,-10.29 14.3,-8.76 -8.76,-33.69 -8.76,-11.53 0,16.48 -19.36,5.08 -9.68,-18.9 8.27,-20.49 4.76,-29.46 -8.77,-41.04 l -14.76,5.53 6.47,18.44 -20.29,11.06 -27.66,10.14 -10.14,-15.67 -15.67,-1.85 -20.29,-12.9 18.85,-33.74 c -3.37,-1.19 -7.13,-2.71 -11.47,-4.53 -13.82,-6.1 -21.66,-7.79 -27.68,-7.05 -4.41,0.54 -7.86,2.4 -11.97,4.75 -9.69,5.52 -13.84,4.15 -20.29,-2.31 -6.46,-6.46 -13.36,-5.07 -27.66,-4.15 -14.3,0.91 -19.37,4.15 -29.04,11.53 -9.69,7.38 -16.6,15.67 -15.67,23.52 0.91,7.83 -1.85,9.68 -8.77,11.53 -6.92,1.85 -21.67,5.07 -30.42,4.61 -4.97,-3.32 -11.02,-5.3 -15.2,-3.7 -1.79,0.68 -3.37,2.13 -4.63,4.63 -4.16,8.29 -9.11,10.53 -19.82,-0.46 -12.44,-12.76 -20.89,-18.89 -31.95,-24.21 -4.93,-2.37 -10.38,-4.58 -16.93,-7.14 -15.36,-6.01 -19.37,-5.99 -22.59,-15.22 -3.23,-9.22 -7.38,-16.14 -17.52,-13.84 -10.14,2.31 -14.84,0.18 -23.52,-4.15 -12.9,-6.46 -16.14,-6.92 -34.12,-2.31 -10.7,2.69 -23.65,3.14 -35.38,-0.47 -2.4,-0.75 -4.76,-1.66 -7.04,-2.75 -21.05,-10.16 -37.62,-1.06 -39.19,19.36 -1.14,14.78 -12.17,26 -30.89,20.75 -11.54,-3.23 -11.99,-5.07 -23.52,-3.23 -11.53,1.85 -13.84,0.46 -17.06,-14.29 -3.22,-14.75 -14.76,-20.75 -31.36,-24.9 -16.6,-4.15 -30.43,-7.37 -45.18,-12.45 -2.1,-0.72 -2.28,-0.8 -4.14,-1.39 -13.22,-9.85 -21.98,-12.4 -30.49,-7.19 -4.75,2.9 -9.79,8.11 -16.27,15.67 -3.93,4.6 -7.37,8.22 -11.1,10.34 l 37.72,15.16 -0.62,32.59 -26.15,0.54 c -3.77,-8.15 -11.9,-17.72 -20.72,-23.83 l -25.68,14.07 -31.36,-29.51 -44.27,-30.75 23.37,-16.6 -19.67,-9.82 9.84,-17.84 -28.28,-20.29 -33.8,20.29 -8.61,-20.29 26.42,-11.06 -9.83,-11.07 -20.9,-23.35 -30.13,-11.99 -35.97,8.3 -37.19,-2.47 -32.58,-18.44 -9.54,24.59 -24.89,-6.45 -25.211,5.22 16.901,50.42 4.61,10.45 -28.89,-2.46 -24.598,13.52 -45.184,-15.37 -37.183,17.83 -30.133,-13.52 7.379,-48.56 -42.414,-21.52 -3.074,-31.36 -17.828,-0.61 -6.774,-22.13 -17.203,-7.38 -4.93,-30.74 19.684,3.08 27.039,-1.24 28.891,4.93 33.195,9.21 24.601,-4.91 4.301,-31.97 -6.769,-9.22 -27.043,-3.69 -1.778,-27.17 c -1.207,-0.96 -2.406,-2.07 -3.914,-3.26 -4.613,-3.69 -10.144,-5.53 -17.98,-6.46 -7.836,-0.92 -13.836,-3.69 -23.047,-4.15 -9.223,-0.47 -9.684,-2.31 -6.926,-7.84 2.77,-5.53 2.305,-11.99 1.852,-23.05 -0.461,-11.06 -0.918,-13.37 2.304,-18.91 3.219,-5.52 3.922,-7.29 -2.765,-11.06 -21.215,-11.99 -44.727,-35.04 -50.254,-41.96 -2.766,-2.3 -5.988,-5.99 -6.918,-9.22 -0.922,-3.22 -2.766,-6.46 -5.988,-9.68 -3.227,-3.23 -7.379,-5.53 -13.368,-9.23 -5.992,-3.68 -5.531,-5.99 -3.226,-9.68 1.656,-2.64 1.633,-2.38 2.32,-5.66 0.543,-2.54 -1.508,-5.43 -2.816,-6.74 -4.617,-4.6 -11.035,-8.34 -18.414,-15.26 -7.375,-6.92 -16.141,-17.06 -26.739,-20.28 -10.601,-3.23 -21.214,-8.3 -29.972,-12.91 -8.766,-4.62 -10.141,-9.69 -7.836,-16.14 1.371,-3.83 -0.508,-7.02 -4.192,-9.25 -2.519,-1.54 -5.886,-2.63 -9.632,-3.2 -9.231,-1.39 -12.453,-3.23 -17.063,-11.53 -3.926,-7.06 -6.496,-9.11 -12.269,-13.53 l 24.422,-19.82 -18.442,-17.22 -14.754,-0.61 -20.906,-14.14 -9.84,-25.21 -20.894,-13.52 -12.297,3.07 -71.922,-29.51 -7.379,11.06 -12.301,-8.6 -22.129,-31.98 -20.894,-12.28 27.047,-46.12 -2.766,-43.34 -27.66,-47.95 3.988,-12.61 18.441,-13.53 -5.222,-22.73 -18.442,-17.84 -26.742,-7.38 -9.836,-21.51 -47.34,-25.83 -41.8,-20.9 -27.047,-33.189 -103.313,-93.429 34.418,-35.114 c -2.203,-2.296 -4.195,-4.308 -5.648,-5.886 -3.852,-4.172 -8.16,-8.5 -13.899,-14.141 -4.66,-4.59 -9.578,-11.41 -14.14,-15.66 l -14.258,-39.852 -19.668,-18.437 8.609,-26.434 -20.902,-28.886 30.125,-8.602 59.012,-47.949 -38.117,-60.262 -4.301,-22.75 -15.371,-15.367 17.832,-36.891 -15.985,-17.832 -12.293,11.672 L 68.9023,481.23 45.2422,474.469 35.3984,461.57 21.2539,463.41 7.73438,440.051 34.7813,425.301 24.793,407.012 C 19.0117,402.391 15.707,392.34 8.96484,377.949 6.21484,372.082 3.24219,368.039 0,365.238 l 2.20313,-8.797 30.73827,19.047 30.7422,-9.84 11.0625,7.383 2.4531,11.059 33.1958,0.609 3.691,-11.058 27.664,-1.852 49.789,30.121 -4.91,11.692 38.734,31.968 9.227,-3.09 39.957,22.141 13.531,30.738 -11.683,15.371 -20.286,-19.671 -25.214,36.902 13.527,14.141 -9.031,20.488 -16.145,10.32 7.555,14.582 8.484,16.219 9.184,17.289 68.238,50.262 71.469,11.98 77.226,46.797 130.946,-4.629 109.734,-31.57 -13.152,-38.711 2.433,-14.68 -27.039,-18.437 -3.691,-11.68 12.91,-24.59 23.977,-20.281 19.664,-27.672 12.304,-12.91 v -30.117 l -14.148,-4.91 -14.754,-20.293 -17.207,-33.809 1.844,-30.738 -11.063,-15.992 6.762,-32.59 13.523,-6.141 h 17.211 l 50.723,-10.449 -10.75,-20.899 -2.469,-32.589 -12.285,-28.282 16.598,-9.828 33.34,28.27 14.449,-20.391 10.375,-16.019 20.519,-39.821 11.684,-5.519 14.754,-19.68 -11.68,-12.902 11.063,-16.598 15.367,-1.23 -4.297,-17.223 8.601,-20.289 14.754,-21.508 11.067,-23.9804 12.906,-15.3711 3.691,-16.6094 h 15.985 l 18.437,20.2891 13.524,1.8398 17.222,-16.6016 12.907,-2.4492 6.149,15.9805 22.13,22.1289 16.59,-1.8398 8.62,-4.3086 29.5,39.3598 22.14,-12.9106 22.13,3.0703 28.28,-20.2813 14.14,14.1407 14.13,3.6914 30.75,28.8905 14.14,1.231 1.22,12.91 10.46,8.609 16.6,6.758 17.22,-6.758 11.68,8.609 v 22.129 L 1296.3,180 h 11.69 l 6.75,-14.75 18.44,-4.918 22.75,0.617 20.91,6.762 17.21,-19.051 24.28,-10.461 -2.15,-18.437 6.78,-11.071 h 17.2 l 8,14.149 12.91,1.23 30.73,-26.4294 13.53,11.6794 38.73,-9.23 10.45,7.379 -7.37,17.222 9.85,39.957 19.66,23.981 12.9,4.91 54.11,-1.848 18.44,20.911 5.54,27.039 11.06,10.461 -7.38,28.886 11.06,35.043 57.18,11.668 8.6,25.223 30.13,15.976 -6.15,19.063 13.53,23.348 -11.07,17.23 -14.45,36.262 -21.82,22.129 -22.13,18.441 49.18,46.121 13.22,-12 40.89,18.137 15.98,35.043 23.98,12.91 5.84,15.047 21.21,5.531 22.13,23.981 -7.38,18.441 -11.06,6.457 2.25,16.359 24.02,7.161 29.51,27.203 12.87,3.808 50.28,15.59 10.65,-19.148 -2.8,-32.981 7.26,-13.402 -4.95,-91.258 -23.83,-34.019 20.81,-34.563 -8.01,-25.059 20.09,-6.109 0.47,-13.68 15.98,-3.691 22.45,-12.301 14.2,-2.961 56.22,-85.578 10.41,-25.488 27.83,5.738 45.33,-24.629 8.76,-5.121 9.56,16.012 12.87,9.488 5.23,-18.762 40.12,-13.148 10.59,9.582 35.5,-25.461 -2.45,-19.16 -22.76,-39.539 -19.53,-10.012 -7.79,-31.769 c 3.31,0.629 6.47,1.129 9.61,1.129 5.21,0 11.91,-1.18 23.87,-6.938 11.71,-5.641 16.74,-14.762 22.28,-22.59 4.9,-6.961 9.22,-10.523 16.13,-11.992 0,0 3.23,0.922 6.47,1.379 l 8.29,0.82 3.91,-8.769 -2.61,-22.52 6.37,-11.262 12.69,-4.707 1.31,-4.293 2.56,-7.3082 16.03,-46.0703 -22.74,-25.4609 -0.25,-16.5 36.36,16.1406 L 2476.34,0 l 16.6,3.21875 16.99,55.37105 29.38,38.5899 -27.63,24.4413 -25.82,8.301 -9.03,33.848 -16.12,14.902 27.75,23.519 -2.15,7.207 -5.05,14.102 -12.91,19.832 10.6,21.668 43.63,20.82 11.61,23.231 -11.43,37.558 36.89,20.282 19.36,23.98 10.15,12 28.59,16.141 3.69,27.199 15.66,18.437 v 13.84 l 22.13,0.922 2.77,37.801 19.99,36.578 14.13,32.582 -2.36,31.27 -16.68,18.531 0.61,57.168 -24.29,23.16 -1.16,14.461 12.68,2.051 8.92,9.828 3.17,45.601 25.89,12.168 40.28,3.692 2.46,-15.051 16.91,-22.43 20.88,-7.679 17.79,38.398 21.72,11.699 1.06,-24.488 -1.39,-31.359 -3.22,-46.219 7.69,-19.363 -1.24,-31.707 28.56,-12.883 18.69,-40.789 22.23,-31.739 8.41,3.911 24.49,-11.633 14.43,-0.887 7.68,-8.293 16.91,-0.309 35.04,17.829 15.06,-11.368 15.06,3.379 10.45,23.989 -8.28,12.589 7.38,17.84 12.29,13.524 24.59,-19.051 49.48,31.348 28.59,5.543 25.33,21.82 17.1,-13.902 21.22,9.289 10.45,-17.829 23.67,-13.519 -8,-14.449 V 604.84 l 14.45,-14.449 -3.07,-31.661 31.35,-6.46 21.14,-11.668 2.21,-19.571 -9.68,-21.222 23.05,-13.368 9.99,13.258 41.5,-1.219 27.16,34.93 -2.27,13.43 -11.67,7.89 -3.39,20.7 -19.05,16.5 -17.52,23.98 -2.96,21.102 14.64,13.929 0.92,21.09 12.81,10.36 11.94,1.097 3.21,31.094 -25.82,19.969 -35.97,-16.27 -34.12,35.957 0.48,14.66 -3.55,13.922 -2.26,34.071 5.91,21.48 -5.5,22.211 18.17,18.797 19.65,27.621 4.61,37.781 23.97,-5.531 42.63,25.281 4.55,-2.062 c 3.45,0.761 7.99,-0.18 14.21,-3.887 1.89,-1.133 3.6,-2.141 5.14,-3.051 l 5.71,19.571 11.72,-0.77 15.55,-28.75 -11.16,-16.75 -2.93,-17.152 13.24,-8.871 13.22,1.273 12,-9.684 3.34,-14.027 39.99,-4.871 8.73,7.422 16.98,-0.063 25.02,-9.211 10.15,11.372 31.03,-21.879 13.9,13.73 10.14,34.117 3.01,35.043 6.83,7.508 -43.61,40.133"
         style="fill:#d72624;fill-opacity:1;fill-rule:nonzero;stroke:none"
         id="path14" /><path
         d="m 1360.71,1421.07 h 993.62 v -298.08 h -993.62 v 298.08"
         style="fill:#ffffff;fill-opacity:1;fill-rule:nonzero;stroke:none"
         id="path16" /><path
         d="m 1708.48,1768.84 h 298.09 V 775.219 h -298.09 v 993.621"
         style="fill:#ffffff;fill-opacity:1;fill-rule:nonzero;stroke:none"
         id="path18" /></g></g></svg>
